<?xml version="1.0" standalone="no"?>
<!DOCTYPE svg PUBLIC "-//W3C//DTD SVG 20010904//EN"
 "http://www.w3.org/TR/2001/REC-SVG-20010904/DTD/svg10.dtd">
<svg version="1.0" xmlns="http://www.w3.org/2000/svg"
 width="649.000000pt" height="282.000000pt" viewBox="0 0 649.000000 282.000000"
 preserveAspectRatio="xMidYMid meet">

<g transform="translate(0.000000,282.000000) scale(0.100000,-0.100000)"
fill="#000000" stroke="none">
<path d="M4185 2715 c-38 -35 -75 -64 -80 -65 -6 0 -16 14 -22 30 -6 17 -18
30 -27 30 -18 0 -60 -54 -71 -90 l-7 -25 21 28 c39 47 40 43 55 -136 4 -48 2
-58 -10 -53 -18 7 -18 -7 0 -42 20 -39 35 -129 27 -160 -7 -24 -10 -26 -64
-23 -36 1 -57 -2 -57 -8 0 -6 6 -11 14 -11 7 0 41 -18 74 -40 33 -22 62 -40
64 -40 13 0 17 81 7 139 -5 35 -7 66 -5 69 9 9 46 -83 52 -131 5 -32 0 -65
-14 -114 -35 -113 -38 -185 -12 -286 32 -123 25 -188 -28 -292 -47 -92 -53
-88 -17 10 29 77 41 169 27 205 -10 26 -11 26 -27 -26 -3 -8 -9 -13 -14 -9 -6
3 -15 -4 -21 -15 -6 -11 -18 -20 -28 -21 -9 0 -35 -28 -59 -64 l-42 -63 14
-69 c17 -80 18 -93 6 -93 -4 0 -14 20 -21 45 -16 59 -24 50 -21 -24 2 -40 -2
-63 -12 -72 -8 -8 -19 -30 -26 -49 -20 -60 -36 -73 -93 -78 -44 -3 -59 0 -88
20 -43 29 -69 79 -69 133 -1 34 6 48 49 95 27 30 50 60 50 65 0 6 8 27 19 47
l18 36 -31 0 c-17 0 -59 3 -94 7 -43 6 -75 4 -102 -5 -32 -11 -42 -11 -55 0
-13 10 -15 9 -15 -8 0 -12 4 -23 9 -27 5 -3 12 -18 16 -34 3 -16 28 -53 56
-83 41 -45 49 -59 49 -92 0 -91 -61 -156 -147 -156 -52 0 -78 21 -110 88 -22
46 -26 69 -25 120 3 77 -11 75 -29 -3 -7 -30 -16 -52 -21 -49 -12 8 -10 38 9
116 11 45 13 74 7 82 -5 7 -25 36 -44 64 -19 29 -43 52 -52 52 -10 0 -22 9
-28 20 -6 11 -17 20 -25 20 -8 0 -15 9 -15 20 0 11 -4 20 -10 20 -31 0 -18
-138 24 -241 14 -35 24 -64 22 -66 -6 -6 -67 117 -81 164 -20 64 -18 113 5
203 26 100 25 159 -6 276 -28 111 -26 152 12 224 l24 45 -4 -40 c-12 -92 -10
-175 4 -175 6 0 21 9 33 20 12 12 43 31 69 43 63 29 62 38 -2 39 -3 1 -20 -2
-37 -5 l-33 -6 0 60 c0 33 7 76 16 97 36 85 36 84 13 77 -19 -6 -21 -4 -15 16
4 13 9 63 13 112 3 48 9 87 13 87 19 0 80 -92 80 -121 0 -7 -12 -26 -27 -42
l-28 -30 40 25 c67 41 126 60 208 65 85 6 105 -7 35 -24 l-43 -11 68 -1 c37 0
76 -7 87 -13 15 -10 22 -10 32 0 7 7 41 12 77 13 l66 1 -40 13 -40 13 28 7
c62 17 177 -11 262 -63 l40 -25 -29 31 c-26 28 -27 33 -17 63 16 45 14 47 -14
16 -30 -32 -30 -32 -86 -11 -35 13 -69 15 -169 10 -69 -3 -152 -2 -185 3 -65
9 -141 1 -192 -20 -30 -12 -34 -11 -59 11 -14 14 -39 48 -55 76 -55 97 -76
101 -98 17 -7 -24 -18 -43 -26 -43 -7 0 -46 25 -87 56 -94 72 -138 94 -187 94
-32 0 -44 -6 -65 -31 -31 -37 -31 -41 -5 -99 13 -30 58 -81 132 -153 l112
-107 6 -88 c4 -54 17 -116 34 -162 39 -112 44 -214 15 -345 -23 -104 -24 -106
-6 -173 33 -128 46 -103 -127 -250 -85 -73 -166 -145 -179 -161 -52 -61 -59
-113 -20 -161 14 -18 32 -24 73 -28 l55 -4 161 166 c88 91 165 166 171 166 6
0 15 -6 19 -14 15 -25 97 -111 140 -145 39 -31 45 -33 100 -27 107 10 288 12
306 3 11 -5 39 -9 63 -9 54 0 108 37 190 129 l57 65 157 -156 c176 -175 185
-180 245 -124 31 30 39 53 36 99 -1 8 -71 85 -157 170 -85 84 -159 161 -164
170 -6 10 -2 38 11 78 24 79 24 109 -2 224 -26 114 -21 211 15 316 28 80 70
134 228 293 99 99 129 144 103 154 -11 5 -39 -16 -88 -63 -202 -194 -207 -198
-207 -151 0 12 46 64 127 142 119 116 139 146 96 146 -19 0 -49 -24 -145 -116
-80 -77 -95 -85 -105 -59 -3 10 17 38 58 81 71 73 72 75 112 122 32 39 34 52
9 52 -10 0 -58 -40 -107 -90 -50 -49 -95 -90 -102 -90 -6 0 -15 9 -18 21 -6
17 10 39 84 114 50 51 91 97 91 104 0 6 -12 11 -27 11 -20 0 -48 -19 -98 -65z
m-1089 -195 c-8 -36 -17 -89 -21 -117 -8 -60 -18 -67 -33 -23 -8 23 -7 43 5
82 16 56 52 133 58 126 2 -2 -2 -33 -9 -68z m1058 -83 c7 -35 -7 -87 -22 -87
-8 0 -43 185 -41 220 0 22 55 -93 63 -133z"/>
<path d="M3325 2361 c-3 -5 25 -13 62 -17 75 -7 114 -19 125 -37 4 -6 10 -8
14 -4 12 11 -11 29 -63 49 -51 19 -128 24 -138 9z"/>
<path d="M3727 2351 c-27 -9 -53 -25 -59 -34 -8 -16 -5 -16 29 3 21 11 51 20
68 20 50 0 105 12 99 21 -8 14 -85 9 -137 -10z"/>
<path d="M3566 2292 c-6 -25 -4 -38 9 -51 11 -13 14 -27 9 -45 -6 -25 3 -122
11 -114 9 8 14 158 5 158 -5 0 -13 19 -18 43 l-8 42 -8 -33z"/>
<path d="M3240 2133 c-30 -15 -49 -28 -43 -30 17 -6 124 38 118 48 -9 13 -16
12 -75 -18z"/>
<path d="M3882 2148 c5 -15 118 -60 118 -47 0 9 -92 59 -111 59 -6 0 -9 -5 -7
-12z"/>
<path d="M3456 2093 c54 -82 65 -122 38 -144 -13 -11 -23 -9 -64 14 -42 24
-59 27 -134 27 l-87 0 20 -21 c11 -12 25 -35 32 -53 20 -49 37 -57 101 -51 53
5 57 4 51 -12 -3 -10 -10 -24 -16 -30 -17 -23 8 -14 50 16 23 16 51 48 64 70
24 44 49 54 49 21 0 -19 1 -20 25 -4 23 15 24 15 32 -13 l7 -28 6 33 c7 46 21
44 48 -6 14 -24 43 -57 65 -73 42 -30 67 -39 50 -16 -6 6 -13 20 -16 30 -6 17
-2 18 47 12 64 -8 89 2 106 47 7 18 22 43 33 56 l20 22 -84 0 c-71 0 -92 -4
-137 -27 -51 -26 -55 -26 -67 -10 -10 14 -11 27 -3 54 10 38 35 83 52 95 6 4
7 10 2 15 -4 4 -31 -18 -59 -50 -48 -53 -55 -58 -94 -57 -38 0 -46 5 -88 55
-49 57 -81 75 -49 28z m-156 -170 c0 -22 -2 -25 -10 -13 -13 20 -13 40 0 40 6
0 10 -12 10 -27z m610 7 c0 -11 -4 -20 -10 -20 -5 0 -10 9 -10 20 0 11 5 20
10 20 6 0 10 -9 10 -20z m-506 -15 c-4 -8 -10 -15 -15 -15 -5 0 -9 7 -9 15 0
8 7 15 15 15 9 0 12 -6 9 -15z m406 -1 c0 -8 -4 -12 -10 -9 -5 3 -10 10 -10
16 0 5 5 9 10 9 6 0 10 -7 10 -16z"/>
<path d="M3110 1896 c0 -2 7 -20 16 -41 14 -34 14 -38 -3 -50 -17 -13 -16 -15
12 -45 37 -39 95 -70 132 -70 25 0 23 3 -23 31 -27 17 -52 37 -56 43 -13 18
-9 36 7 36 8 0 15 1 15 3 0 2 -20 24 -44 50 -38 42 -56 55 -56 43z"/>
<path d="M4015 1839 c-36 -37 -44 -49 -28 -45 56 17 14 -48 -49 -77 -35 -15
-36 -27 -3 -27 37 0 77 23 114 66 29 32 31 38 17 53 -10 11 -12 21 -5 34 6 10
9 24 7 33 -2 10 -19 -1 -53 -37z"/>
<path d="M3373 1697 c-11 -12 -32 -43 -46 -68 -22 -39 -24 -48 -12 -53 8 -3
15 -16 16 -28 1 -31 41 58 41 92 0 13 7 35 16 48 20 31 10 37 -15 9z"/>
<path d="M3804 1695 c5 -11 12 -37 16 -58 4 -21 13 -44 19 -50 6 -6 11 -21 11
-34 0 -13 5 -23 10 -23 6 0 8 11 4 25 -5 20 -3 24 10 19 22 -9 20 1 -14 61
-32 56 -71 98 -56 60z"/>
<path d="M3546 1681 c-3 -5 14 -11 38 -13 35 -2 42 0 34 9 -12 15 -64 17 -72
4z"/>
<path d="M2164 886 c-35 -35 -44 -50 -36 -58 8 -8 22 -4 51 17 60 41 68 53 48
72 -15 15 -20 13 -63 -31z"/>
<path d="M1835 902 c-37 -8 -65 -43 -65 -82 0 -44 27 -72 85 -90 56 -17 85
-37 85 -60 0 -43 -52 -63 -104 -39 -17 8 -26 21 -28 43 -2 23 -8 31 -23 31
-18 0 -20 -7 -20 -60 l0 -60 81 -3 c68 -2 84 0 106 17 32 26 41 67 21 108 -12
25 -27 36 -81 56 -73 27 -93 47 -76 75 13 21 79 28 100 11 8 -6 14 -22 14 -35
0 -18 6 -24 20 -24 19 0 21 5 18 56 l-3 55 -55 3 c-30 2 -64 1 -75 -2z"/>
<path d="M3120 885 c-15 -18 2 -45 30 -45 23 0 34 28 19 46 -15 18 -33 18 -49
-1z"/>
<path d="M3957 894 c-9 -10 4 -34 19 -34 11 0 14 -24 14 -120 0 -115 -1 -120
-21 -120 -14 0 -19 -5 -17 -17 3 -14 15 -19 62 -21 32 -2 65 -1 72 2 22 8 4
36 -22 36 -22 0 -24 4 -24 50 l0 50 38 0 c37 0 38 -2 50 -46 9 -34 10 -50 1
-60 -18 -22 0 -34 52 -34 42 0 49 3 49 19 0 12 -8 21 -21 23 -16 2 -27 18 -42
56 l-20 53 22 23 c17 18 22 33 19 67 -3 39 -7 46 -38 61 -34 18 -178 26 -193
12z m161 -40 c13 -4 25 -17 29 -32 8 -33 -26 -62 -73 -62 l-34 0 0 50 c0 48 1
50 28 50 15 0 37 -3 50 -6z"/>
<path d="M4890 881 c0 -14 6 -21 20 -21 19 0 20 -7 20 -119 0 -112 -1 -119
-21 -124 -41 -11 -14 -32 44 -35 52 -3 57 -1 57 18 0 11 -7 20 -15 20 -12 0
-15 13 -15 59 0 61 9 77 45 81 54 6 55 4 55 -69 0 -65 -2 -70 -22 -73 -13 -2
-23 -10 -23 -18 0 -11 15 -16 63 -18 57 -3 62 -1 62 18 0 11 -6 20 -14 20 -10
0 -15 19 -18 75 -2 53 -8 80 -21 92 -18 18 -77 23 -116 9 -23 -8 -23 -7 -20
46 l4 53 -42 3 c-38 3 -43 1 -43 -17z"/>
<path d="M2910 817 c-14 -6 -54 -11 -88 -11 -57 -1 -66 -4 -88 -29 -27 -32
-30 -55 -10 -82 10 -14 11 -25 5 -38 -6 -10 -7 -26 -4 -37 3 -11 1 -28 -5 -39
-16 -31 -2 -68 31 -81 42 -18 115 -7 145 21 50 47 18 97 -68 106 -70 7 -75 18
-12 26 57 6 76 24 83 79 5 34 10 43 31 48 16 4 25 13 25 25 0 23 -13 27 -45
12z m-79 -57 c29 -16 25 -56 -6 -64 -51 -13 -90 39 -47 63 22 13 29 13 53 1z
m23 -176 c24 -9 19 -41 -6 -48 -62 -16 -99 1 -84 39 6 15 60 21 90 9z"/>
<path d="M2140 803 c-8 -3 -27 -17 -42 -31 -24 -22 -28 -34 -28 -78 0 -47 3
-55 35 -83 27 -24 45 -31 76 -31 48 0 109 26 109 46 0 22 -29 28 -49 10 -27
-24 -83 -21 -109 7 -12 13 -22 26 -22 30 0 4 38 7 84 7 67 0 85 3 90 16 12 32
5 56 -23 85 -23 22 -38 29 -68 28 -21 0 -45 -3 -53 -6z m97 -52 c17 -26 8 -31
-59 -31 -62 0 -67 3 -41 32 22 25 84 24 100 -1z"/>
<path d="M2435 801 c-35 -7 -48 -41 -16 -41 19 0 21 -6 21 -69 0 -69 0 -70
-27 -73 -17 -2 -28 -9 -28 -18 0 -12 17 -15 95 -15 81 0 95 2 98 17 3 14 -6
17 -45 20 -47 3 -48 4 -50 38 -3 56 5 79 37 95 37 19 40 19 40 -4 0 -23 23
-34 39 -18 15 15 14 50 -1 65 -13 13 -63 15 -93 3 -11 -5 -24 -5 -30 -2 -5 4
-23 5 -40 2z"/>
<path d="M3110 803 c-60 -6 -80 -13 -80 -28 0 -17 8 -19 63 -16 l37 3 0 -71 0
-70 -52 -3 c-39 -2 -53 -7 -53 -18 0 -12 20 -15 120 -15 106 0 120 2 123 18 3
14 -4 17 -47 17 l-50 0 -3 92 c-2 51 -7 92 -13 93 -5 1 -26 0 -45 -2z"/>
<path d="M3380 794 c-47 -33 -64 -84 -48 -140 12 -45 58 -74 117 -74 36 0 49
6 77 34 29 29 34 41 34 80 0 66 -38 107 -106 113 -36 3 -56 0 -74 -13z m110
-44 c29 -29 27 -94 -2 -114 -35 -25 -73 -20 -98 11 -54 69 38 165 100 103z"/>
<path d="M4324 791 c-65 -40 -67 -146 -5 -190 35 -25 107 -28 139 -5 12 8 29
28 37 44 56 108 -66 215 -171 151z m116 -41 c45 -45 13 -130 -50 -130 -63 0
-91 71 -49 124 25 32 70 35 99 6z"/>
<path d="M4646 795 c-43 -23 -55 -45 -56 -102 0 -75 30 -105 109 -111 50 -4
61 -1 87 21 23 21 27 28 16 38 -10 11 -18 10 -41 -4 -89 -53 -177 38 -106 109
35 35 96 31 105 -6 4 -16 13 -25 25 -25 31 0 31 40 1 70 -30 30 -93 34 -140
10z"/>
<path d="M5266 789 c-26 -20 -34 -53 -17 -63 15 -10 39 4 44 25 7 26 62 26 77
0 12 -24 8 -27 -52 -35 -58 -9 -78 -27 -78 -71 0 -55 18 -64 119 -62 95 2 132
17 110 44 -9 10 -15 11 -23 3 -21 -21 -26 -8 -26 60 0 62 -3 74 -25 95 -31 32
-91 34 -129 4z m114 -129 c0 -35 -85 -55 -97 -24 -9 23 23 44 64 44 26 0 33
-4 33 -20z"/>
<path d="M5136 391 c-4 -7 -5 -15 -2 -18 9 -9 19 4 14 18 -4 11 -6 11 -12 0z"/>
<path d="M1010 301 c0 -54 4 -91 10 -91 6 0 10 30 11 68 l0 67 27 -67 c38 -96
52 -89 52 22 0 104 -18 123 -22 23 l-3 -67 -26 64 c-38 93 -49 89 -49 -19z"/>
<path d="M1620 380 c0 -5 5 -10 10 -10 6 0 10 5 10 10 0 6 -4 10 -10 10 -5 0
-10 -4 -10 -10z"/>
<path d="M1876 382 c-13 -12 -4 -18 28 -19 19 -1 37 4 39 11 5 12 -56 20 -67
8z"/>
<path d="M2310 300 l0 -90 40 0 c22 0 40 5 40 10 0 6 -14 10 -31 10 -28 0 -30
2 -27 33 2 24 8 33 26 35 12 2 22 8 22 13 0 6 -10 9 -22 7 -19 -2 -24 2 -26
25 -3 23 0 27 22 27 14 0 28 5 31 10 4 6 -10 10 -34 10 l-41 0 0 -90z"/>
<path d="M3200 380 c0 -5 4 -10 9 -10 6 0 13 5 16 10 3 6 -1 10 -9 10 -9 0
-16 -4 -16 -10z"/>
<path d="M4002 303 l3 -88 33 -3 c18 -2 32 1 32 7 0 6 -12 11 -26 11 -23 0
-25 3 -22 33 2 24 8 33 26 35 12 2 22 8 22 13 0 5 -10 8 -22 6 -19 -2 -23 3
-23 28 0 25 4 30 22 27 12 -2 24 2 28 8 4 6 -9 10 -35 10 l-41 0 3 -87z"/>
<path d="M1368 363 c-2 -10 -2 -47 1 -83 5 -51 10 -66 24 -68 9 -2 17 1 17 7
0 6 -4 11 -10 11 -15 0 -12 97 3 104 10 5 10 7 0 12 -7 3 -13 12 -13 20 0 20
-17 17 -22 -3z"/>
<path d="M3087 360 c-5 -22 -4 -56 1 -127 1 -16 8 -23 22 -23 19 0 19 2 6 23
-15 23 -13 87 3 97 5 3 1 16 -9 30 l-18 25 -5 -25z"/>
<path d="M5797 358 c-2 -13 -2 -50 2 -83 5 -46 10 -61 24 -63 9 -2 17 1 17 7
0 6 -5 11 -11 11 -7 0 -10 21 -9 58 3 77 2 92 -9 92 -5 0 -11 -10 -14 -22z"/>
<path d="M1200 285 c0 -59 2 -65 23 -69 54 -11 57 -7 57 66 0 82 -18 91 -22
11 -2 -46 -7 -59 -20 -61 -16 -3 -18 5 -18 57 0 34 -4 61 -10 61 -6 0 -10 -28
-10 -65z"/>
<path d="M1490 280 c0 -40 4 -70 10 -70 6 0 10 25 10 55 0 40 4 57 15 61 24 9
17 24 -10 24 -24 0 -25 -2 -25 -70z"/>
<path d="M1620 280 c0 -40 4 -70 10 -70 6 0 10 30 10 70 0 40 -4 70 -10 70 -6
0 -10 -30 -10 -70z"/>
<path d="M1742 338 c-19 -19 -14 -93 8 -133 16 -29 17 -35 5 -35 -8 0 -15 -4
-15 -10 0 -14 27 -12 37 3 4 6 8 24 9 40 1 20 -3 27 -17 27 -16 0 -19 8 -19
50 0 43 3 50 20 50 11 0 20 5 20 10 0 14 -33 13 -48 -2z"/>
<path d="M1880 341 c0 -6 9 -11 20 -11 28 0 25 -25 -6 -38 -21 -10 -25 -18
-22 -45 3 -29 7 -32 36 -34 l33 -1 -3 66 c-3 65 -4 67 -30 70 -16 2 -28 -1
-28 -7z m38 -83 c-4 -27 -28 -36 -28 -10 0 20 8 32 22 32 5 0 8 -10 6 -22z"/>
<path d="M2042 338 c-15 -15 -16 -82 -2 -109 13 -23 43 -25 60 -4 17 21 18 89
1 109 -16 19 -42 21 -59 4z m50 -25 c2 -10 2 -33 0 -51 -3 -24 -9 -32 -21 -30
-16 3 -28 57 -17 84 8 20 34 17 38 -3z"/>
<path d="M2472 338 c-18 -18 -15 -35 13 -56 34 -27 33 -52 -2 -52 -20 0 -24
-3 -16 -11 7 -7 23 -9 37 -5 35 9 35 48 1 74 -14 11 -25 25 -25 31 0 6 11 11
25 11 14 0 25 5 25 10 0 14 -43 13 -58 -2z"/>
<path d="M2612 255 c0 -53 5 -98 9 -101 5 -3 9 9 9 25 0 26 4 31 25 31 30 0
45 26 45 77 0 48 -14 63 -57 63 l-33 0 2 -95z m63 25 c0 -34 -4 -45 -17 -48
-12 -2 -19 5 -24 22 -9 39 3 78 24 74 13 -3 17 -14 17 -48z"/>
<path d="M2791 331 c-15 -27 -14 -84 2 -106 10 -13 21 -16 40 -11 52 13 47
128 -6 134 -18 2 -29 -3 -36 -17z m54 -21 c10 -33 -4 -82 -23 -78 -17 3 -29
56 -18 84 8 21 34 17 41 -6z"/>
<path d="M2950 278 c0 -39 4 -68 10 -68 6 0 10 17 10 38 0 52 10 82 26 82 8 0
14 4 14 9 0 5 -13 9 -30 9 l-30 -1 0 -69z"/>
<path d="M3200 280 c0 -40 4 -70 10 -70 6 0 10 30 10 70 0 40 -4 70 -10 70 -6
0 -10 -30 -10 -70z"/>
<path d="M3300 345 c0 -22 34 -135 41 -135 8 0 39 97 39 124 0 35 -18 13 -27
-31 l-10 -48 -13 48 c-7 26 -16 47 -21 47 -5 0 -9 -2 -9 -5z"/>
<path d="M3465 340 c-4 -6 5 -10 19 -10 34 0 34 -26 1 -34 -29 -7 -44 -49 -25
-71 7 -9 24 -14 39 -12 23 3 26 8 29 50 2 25 -2 55 -8 67 -11 21 -44 27 -55
10z m45 -69 c0 -21 -13 -41 -26 -41 -14 0 -19 31 -7 43 10 10 33 8 33 -2z"/>
<path d="M3741 337 c-37 -45 -15 -127 34 -127 14 0 25 5 25 10 0 6 -11 10 -24
10 -20 0 -36 16 -36 36 0 2 13 4 29 4 37 0 40 6 29 48 -9 34 -36 43 -57 19z
m39 -27 c0 -11 -6 -20 -13 -20 -19 0 -27 10 -20 26 8 21 33 17 33 -6z"/>
<path d="M4166 343 c-10 -10 -7 -133 4 -133 5 0 10 26 12 57 2 46 7 59 21 61
15 3 17 -5 17 -57 0 -34 4 -61 10 -61 6 0 10 27 10 60 0 47 3 60 15 60 11 0
15 -13 15 -54 0 -30 5 -58 10 -61 7 -5 10 16 8 62 l-3 68 -56 2 c-31 1 -59 -1
-63 -4z"/>
<path d="M4390 341 c0 -6 9 -11 20 -11 28 0 25 -25 -6 -38 -21 -10 -25 -18
-22 -45 3 -28 7 -32 36 -35 l33 -3 -3 68 c-3 66 -4 68 -30 71 -16 2 -28 -1
-28 -7z m40 -86 c0 -16 -6 -25 -15 -25 -15 0 -21 31 -8 43 13 14 23 6 23 -18z"/>
<path d="M4545 328 c-3 -13 -4 -41 -2 -63 2 -22 -1 -47 -6 -56 -6 -9 -7 -24
-4 -33 16 -41 87 -26 87 18 0 23 -24 47 -42 43 -19 -5 -15 12 6 26 16 11 25
28 28 51 4 35 3 36 -29 36 -26 0 -34 -5 -38 -22z m45 -21 c0 -13 -3 -27 -7
-30 -11 -12 -31 13 -26 33 7 28 33 25 33 -3z m-1 -96 c19 -12 6 -41 -19 -41
-13 0 -20 7 -20 18 0 31 14 39 39 23z"/>
<path d="M4700 277 c0 -43 4 -66 10 -62 6 3 10 29 10 56 0 35 4 51 15 55 24
10 17 24 -10 22 -24 -2 -25 -5 -25 -71z"/>
<path d="M4837 343 c-11 -19 -17 -73 -11 -97 7 -29 48 -46 67 -27 8 8 4 11
-15 11 -17 0 -27 7 -31 20 -4 16 0 20 19 20 28 0 39 19 30 55 -5 18 -13 25
-31 25 -13 0 -26 -3 -28 -7z m43 -33 c0 -11 -7 -20 -15 -20 -8 0 -15 9 -15 20
0 11 7 20 15 20 8 0 15 -9 15 -20z"/>
<path d="M5000 335 c-16 -19 -15 -92 1 -111 13 -16 49 -19 49 -4 0 6 -9 10
-20 10 -17 0 -20 7 -20 46 0 37 4 47 20 51 11 3 20 9 20 14 0 15 -37 10 -50
-6z"/>
<path d="M5130 280 c0 -40 4 -70 10 -70 6 0 10 30 10 70 0 40 -4 70 -10 70 -6
0 -10 -30 -10 -70z"/>
<path d="M5245 342 c-10 -10 -5 -132 5 -132 6 0 10 21 10 48 0 26 4 53 9 61
16 26 31 0 31 -55 0 -30 5 -54 10 -54 6 0 10 27 10 60 0 47 3 60 15 60 12 0
15 -13 15 -60 0 -35 4 -60 10 -60 7 0 10 25 8 68 l-3 67 -58 1 c-31 0 -59 -2
-62 -4z"/>
<path d="M5470 331 c-5 -11 -10 -34 -10 -51 0 -44 17 -70 45 -70 34 0 41 18 8
22 -39 4 -43 35 -6 40 20 2 29 9 31 26 7 46 -47 72 -68 33z m48 -24 c2 -12 -3
-17 -17 -17 -12 0 -21 6 -21 13 0 31 32 34 38 4z"/>
<path d="M5630 280 c0 -40 4 -70 10 -70 6 0 10 27 10 61 0 52 2 60 18 57 18
-4 19 -5 21 -74 1 -59 21 -48 21 12 0 61 -14 84 -50 84 l-30 0 0 -70z"/>
<path d="M5921 331 c-25 -46 -7 -121 29 -121 33 0 54 44 44 93 -8 35 -13 42
-36 45 -18 2 -30 -3 -37 -17z m54 -21 c10 -33 -4 -82 -23 -78 -17 3 -29 56
-18 84 8 21 34 17 41 -6z"/>
</g>
</svg>
